<!-- Generated by IcoMoon.io -->
<svg version="1.1" xmlns="http://www.w3.org/2000/svg" width="32" height="32" viewBox="0 0 32 32">
<title>area1</title>
<path d="M16.222 10.517c-0.561-0.006-1.014-0.462-1.014-1.024 0-0.278 0.111-0.53 0.29-0.714l-0 0c0.205-0.202 0.486-0.326 0.797-0.326s0.592 0.125 0.797 0.326l-0-0c0.179 0.188 0.289 0.443 0.289 0.724s-0.11 0.536-0.29 0.724l0-0c-0.249 0.154-0.544 0.258-0.861 0.29l-0.009 0.001zM15.931 31.944c-4.489 0-7.819-1.882-7.819-4.489-0.003-0.048-0.005-0.104-0.005-0.161 0-0.304 0.055-0.596 0.156-0.864l-0.006 0.017c0.166-0.413 0.563-0.699 1.026-0.699 0.609 0 1.103 0.494 1.103 1.103 0 0.169-0.038 0.328-0.105 0.471l0.003-0.007v0.145c0 0.869 2.172 2.317 5.647 2.317s5.647-1.303 5.647-2.317v-0.145c-0.065-0.136-0.103-0.296-0.103-0.465 0-0.609 0.494-1.103 1.103-1.103 0.464 0 0.86 0.286 1.024 0.691l0.003 0.007c0.095 0.252 0.15 0.543 0.15 0.848 0 0.057-0.002 0.113-0.006 0.168l0-0.008c0 2.605-3.329 4.489-7.819 4.489zM15.931 25.289c-0.28-0.006-0.533-0.115-0.725-0.291l0.001 0.001c-0.29-0.29-8.686-8.831-8.686-15.931 0.262-5.031 4.405-9.011 9.478-9.011s9.216 3.98 9.477 8.988l0.001 0.023c0 7.095-8.397 15.492-8.686 15.931-0.249 0.154-0.544 0.258-0.861 0.29l-0.009 0.001zM15.931 2.126h-0.288c-3.771 0.163-6.786 3.179-6.949 6.934l-0.001 0.015c0 4.923 5.356 11.293 7.24 13.465 2.027-2.172 7.24-8.542 7.24-13.465-0.141-3.868-3.31-6.949-7.199-6.949-0.014 0-0.029 0-0.043 0h0.002z"></path>
</svg>
