<!-- Generated by IcoMoon.io -->
<svg version="1.1" xmlns="http://www.w3.org/2000/svg" width="32" height="32" viewBox="0 0 32 32">
<title>arrow_under_mid</title>
<path d="M16 25.371c0.823 0 1.554-0.32 2.149-0.869l13.029-13.074c0.549-0.549 0.549-1.371 0-1.92s-1.371-0.549-1.92 0l-13.029 13.029c-0.046 0.046-0.137 0.091-0.229 0.091s-0.183-0.046-0.229-0.091l-13.029-13.029c-0.549-0.549-1.371-0.549-1.92 0-0.274 0.274-0.411 0.594-0.411 0.96s0.137 0.686 0.411 0.96l13.029 13.029c0.594 0.594 1.326 0.914 2.149 0.914z"></path>
</svg>
