<!-- Generated by IcoMoon.io -->
<svg version="1.1" xmlns="http://www.w3.org/2000/svg" width="32" height="32" viewBox="0 0 32 32">
<title>arrow_up_mid</title>
<path d="M18.24 8.229c-1.143-1.143-3.109-1.143-4.251 0l-12.846 12.846c-0.503 0.503-0.503 1.371 0 1.874s1.371 0.503 1.874 0l12.846-12.846c0.046-0.046 0.137-0.091 0.229-0.091s0.183 0.046 0.229 0.091l12.846 12.846c0.274 0.274 0.594 0.411 0.96 0.411 0.32 0 0.686-0.137 0.96-0.411 0.229-0.229 0.411-0.594 0.411-0.96s-0.137-0.686-0.411-0.96l-12.846-12.8z"></path>
</svg>
