<!-- Generated by IcoMoon.io -->
<svg version="1.1" xmlns="http://www.w3.org/2000/svg" width="32" height="32" viewBox="0 0 32 32">
<title>clock2</title>
<path d="M16 0.001c-8.836 0-15.999 7.163-15.999 15.999s7.163 15.999 15.999 15.999c8.836 0 15.999-7.163 15.999-15.999v0c-0.014-8.83-7.169-15.985-15.998-15.999h-0.001zM16 29.091c-7.227 0-13.087-5.859-13.087-13.087s5.859-13.087 13.087-13.087c7.227 0 13.087 5.859 13.087 13.087v0c-0.011 7.223-5.864 13.075-13.085 13.087h-0.001zM17.455 15.401v-8.127c0-0.804-0.651-1.455-1.455-1.455s-1.455 0.651-1.455 1.455v0 8.728c0.002 0.401 0.165 0.764 0.428 1.027v0l4.363 4.363c0.26 0.247 0.612 0.399 1 0.399 0.802 0 1.453-0.65 1.453-1.453 0-0.388-0.152-0.74-0.4-1.001l0.001 0.001-3.937-3.937z"></path>
</svg>
