<svg xmlns="http://www.w3.org/2000/svg" width="22" height="22" viewBox="0 0 22 22" fill="none">
  <path d="M4.85165 6.60608L9.70334 11.4578L4.85165 16.3095C4.49346 16.6676 4.49346 17.2479 4.85165 17.6054C5.20984 17.9629 5.79009 17.9636 6.14759 17.6054L10.9993 12.7537L15.851 17.6054C16.2091 17.9636 16.7894 17.9636 17.1469 17.6054C17.5044 17.2472 17.5051 16.667 17.1469 16.3095L12.2952 11.4578L17.1469 6.60608C17.5051 6.24789 17.5051 5.66764 17.1469 5.31014C16.7887 4.95264 16.2085 4.95196 15.851 5.31014L10.9993 10.1618L6.14759 5.31014C5.7894 4.95196 5.20915 4.95196 4.85165 5.31014C4.49415 5.66833 4.49346 6.24858 4.85165 6.60608Z" fill="white"/>
</svg>