<!-- Generated by IcoMoon.io -->
<svg version="1.1" xmlns="http://www.w3.org/2000/svg" width="32" height="32" viewBox="0 0 32 32">
<title>header_heart</title>
<path d="M23.187 1.702c1.384 0.001 2.686 0.351 3.824 0.966l-0.043-0.021c1.84 0.888 3.293 2.335 4.165 4.118l0.023 0.052 0.163-0.055 0.326 1.29c0.226 0.871 0.355 1.872 0.355 2.902 0 2.23-0.607 4.319-1.664 6.11l0.031-0.056c-2.26 4.037-6.061 7.192-12.574 12.403l-0.438 0.438-0.177 0.088-0.101 0.057c-0.289 0.188-0.641 0.301-1.020 0.305h-0.027c-0.533-0.011-1.015-0.219-1.379-0.553l0.001 0.001-0.037-0.036-0.298-0.298c-6.513-5.211-10.306-8.358-12.566-12.39-1.099-1.772-1.75-3.92-1.75-6.221 0-1.020 0.128-2.010 0.369-2.956l-0.018 0.083 0.020-0.067c0.766-2.385 2.451-4.286 4.628-5.321l0.053-0.023 0.029-0.013c1.119-0.5 2.426-0.791 3.8-0.791 0.002 0 0.005 0 0.007 0h-0c0.001 0 0.002 0 0.004 0 2.826 0 5.367 1.224 7.121 3.17l0.008 0.009c1.693-1.956 4.179-3.186 6.953-3.186 0.034 0 0.068 0 0.101 0.001l-0.005-0zM29.297 8.743l-0.010-0.029c-0.557-1.724-1.775-3.099-3.347-3.852l-0.039-0.017-0.060-0.031c-0.768-0.421-1.683-0.668-2.656-0.668-0.030 0-0.061 0-0.091 0.001l0.005-0h-0.044c-0.025-0-0.053-0-0.082-0-2.501 0-4.684 1.363-5.845 3.387l-0.017 0.033-1.027 1.819-1.081-1.791c-1.281-2.071-3.537-3.432-6.112-3.439h-0.001c-0.002 0-0.004 0-0.006 0-1.019 0-1.989 0.215-2.865 0.602l0.045-0.018c-1.595 0.762-2.802 2.121-3.345 3.78l-0.013 0.045c-0.171 0.673-0.269 1.446-0.269 2.242 0 1.837 0.523 3.552 1.427 5.005l-0.023-0.040 0.026 0.046c2.047 3.664 5.536 6.544 12.025 11.739l0.052 0.042 0.106 0.106 0.106-0.106 0.052-0.042c6.494-5.196 9.979-8.077 12.025-11.739l0.010-0.018c0.824-1.388 1.311-3.059 1.311-4.844 0-0.783-0.094-1.545-0.271-2.274l0.013 0.066z"></path>
</svg>
