<!-- Generated by IcoMoon.io -->
<svg version="1.1" xmlns="http://www.w3.org/2000/svg" width="32" height="32" viewBox="0 0 32 32">
<title>header_history</title>
<path d="M17.208 31.008c-0.648 0-1.296-0.486-1.296-1.296s0.486-1.296 1.296-1.296c2.915 0 5.668-0.972 7.774-2.753 2.591-2.105 4.211-5.020 4.697-8.422 0.324-3.401-0.648-6.64-2.753-9.231s-5.020-4.211-8.422-4.697c-3.401-0.324-6.64 0.648-9.231 2.753-5.344 4.373-6.316 12.308-1.943 17.653 0.486 0.486 0.324 1.296-0.162 1.781s-1.296 0.324-1.781-0.162c-5.182-6.478-4.211-15.871 2.267-21.054 3.077-2.429 6.964-3.563 11.013-3.239 4.049 0.486 7.612 2.429 10.041 5.506s3.563 6.964 3.239 11.013-2.429 7.612-5.506 10.041c-2.591 2.267-5.83 3.401-9.231 3.401zM7.167 27.121c-0.162 0-0.162 0-0.324 0l-5.992-1.458c-0.648-0.162-0.972-0.81-0.81-1.458s0.81-1.134 1.458-0.81l4.697 1.134 1.134-4.697c0.162-0.648 0.81-0.972 1.458-0.81s0.972 0.81 0.81 1.458l-1.458 5.992c0 0.324-0.324 0.648-0.486 0.81 0-0.162-0.324-0.162-0.486-0.162zM23.2 17.242h-6.154c-0.648 0-1.296-0.486-1.296-1.296v-7.612c0-0.648 0.486-1.296 1.296-1.296s1.296 0.486 1.296 1.296v6.478h4.859c0.648 0 1.296 0.486 1.296 1.296s-0.486 1.134-1.296 1.134z"></path>
</svg>
