<!-- Generated by IcoMoon.io -->
<svg version="1.1" xmlns="http://www.w3.org/2000/svg" width="32" height="32" viewBox="0 0 32 32">
<title>job-1</title>
<path d="M15.838 24.444c-0.021 0-0.045 0-0.070 0-2.318 0-4.552-0.36-6.65-1.026l0.155 0.043-7.385-2.464c-1.164-0.456-1.973-1.569-1.973-2.871 0-0.026 0-0.052 0.001-0.077l-0 0.004v-10.175c-0-0.007-0-0.015-0-0.024 0-0.712 0.577-1.289 1.289-1.289 0.008 0 0.017 0 0.025 0l-0.001-0h29.541c0.007-0 0.015-0 0.024-0 0.712 0 1.289 0.577 1.289 1.289 0 0.008-0 0.017-0 0.025l0-0.001v10.338c-0.016 1.275-0.821 2.358-1.949 2.785l-0.021 0.007-7.713 2.462c-1.942 0.624-4.177 0.984-6.495 0.984-0.024 0-0.048-0-0.072-0h0.004zM2.218 9.18v9.021c0 0.329 0.163 0.492 0.329 0.492l7.385 2.462c1.736 0.624 3.738 0.984 5.825 0.984s4.090-0.361 5.949-1.023l-0.124 0.038 7.385-2.462c0.177-0.012 0.317-0.152 0.329-0.328l0-0.001v-9.021h-27.077zM5.829 31.991c-1.426-0.010-2.601-1.071-2.791-2.447l-0.002-0.015-1.149-9.354 2.462-0.329 0.984 9.354c0.012 0.177 0.152 0.317 0.328 0.329l0.001 0h20.032c0.163 0 0.329-0.163 0.492-0.329l1.149-9.354 2.462 0.329-1.149 9.354c-0.184 1.394-1.363 2.459-2.792 2.462h-20.028zM14.206 14.761h3.273v2.462h-3.282zM24.052 9.176h-16.419c-0.007 0-0.015 0-0.024 0-0.712 0-1.289-0.577-1.289-1.289 0-0.008 0-0.017 0-0.025l-0 0.001v-1.626c0-3.44 2.789-6.229 6.229-6.229v0h6.571c3.44 0 6.229 2.789 6.229 6.229v0 1.641c-0.163 0.657-0.657 1.312-1.312 1.312zM8.791 6.551h13.949v-0.314c-0.023-1.985-1.626-3.588-3.608-3.611l-0.002-0h-6.573c-1.988 0.019-3.594 1.624-3.617 3.608l-0 0.002v0.329z"></path>
</svg>
