<!-- Generated by IcoMoon.io -->
<svg version="1.1" xmlns="http://www.w3.org/2000/svg" width="32" height="32" viewBox="0 0 32 32">
<title>header_login</title>
<path d="M16.82 17.395h-13.128c-0.656 0-1.313-0.492-1.313-1.313s0.492-1.313 1.313-1.313h13.128c0.656 0 1.313 0.492 1.313 1.313s-0.656 1.313-1.313 1.313zM13.538 21.99c-0.328 0-0.656-0.164-0.82-0.328-0.492-0.492-0.492-1.313 0-1.805l3.774-3.774-3.774-3.774c-0.492-0.492-0.492-1.313 0-1.805s1.313-0.492 1.805 0l4.595 4.595c0.492 0.492 0.492 1.313 0 1.805l-4.595 4.595c-0.492 0.492-0.821 0.492-0.985 0.492zM28.308 32.164h-19.692c-0.656 0-1.313-0.492-1.313-1.313v-8.205c0-0.656 0.492-1.313 1.313-1.313s1.313 0.492 1.313 1.313v6.892h17.231v-27.077h-17.231v6.892c0 0.656-0.492 1.313-1.313 1.313s-1.313-0.492-1.313-1.313v-8.205c0-0.656 0.492-1.313 1.313-1.313h19.692c0.656 0 1.313 0.492 1.313 1.313v29.538c-0.164 0.985-0.656 1.477-1.313 1.477z"></path>
</svg>
