<!-- Generated by IcoMoon.io -->
<svg version="1.1" xmlns="http://www.w3.org/2000/svg" width="32" height="32" viewBox="0 0 32 32">
<title>header_logout</title>
<path d="M1.921 16.081c0-0.822 0.656-1.313 1.312-1.313h13.128c0.822 0 1.313 0.494 1.313 1.313 0 0.822-0.656 1.313-1.313 1.313h-13.128c-0.656 0-1.313-0.491-1.313-1.313zM6.515 21.991c-0.166 0-0.494 0-0.984-0.494l-4.594-4.594c-0.494-0.494-0.494-1.313 0-1.806l4.594-4.594c0.494-0.494 1.313-0.494 1.806 0s0.494 1.313 0 1.806l-3.775 3.772 3.775 3.775c0.494 0.494 0.494 1.313 0 1.806-0.166 0.163-0.494 0.328-0.822 0.328v0zM30.118 32.163h-19.691c-0.656 0-1.313-0.494-1.313-1.313v-8.203c0-0.656 0.494-1.313 1.313-1.313s1.313 0.494 1.313 1.313v6.894h17.231v-27.078h-17.231v6.894c0 0.656-0.494 1.313-1.313 1.313s-1.313-0.494-1.313-1.313v-8.206c0-0.656 0.494-1.313 1.313-1.313h19.694c0.656 0 1.313 0.494 1.313 1.313v29.538c-0.166 0.984-0.656 1.478-1.316 1.475v0z"></path>
</svg>
