<!-- Generated by IcoMoon.io -->
<svg version="1.1" xmlns="http://www.w3.org/2000/svg" width="32" height="32" viewBox="0 0 32 32">
<title>header_message</title>
<path d="M13.677 2.222c3.164 0 6.328 0.923 8.964 2.768 2.373 1.582 3.955 3.955 4.614 6.723 2.9 1.582 4.614 4.482 4.746 7.778v0c0 1.582-0.527 3.164-1.45 4.614l1.318 3.955c0.132 0.527 0 1.055-0.264 1.318-0.395 0.395-0.923 0.527-1.318 0.264l-4.746-1.582c-1.714 0.659-3.559 1.055-5.405 1.055v0c-0.132 0-0.264 0-0.395 0-3.955 0-7.514-1.846-9.887-4.877-0.791-0.264-1.714-0.527-2.505-0.791l-5.537 1.846c-0.659 0.264-1.45-0.132-1.714-0.923-0.132-0.264-0.132-0.527 0-0.923l1.582-4.746c-1.055-1.582-1.582-3.427-1.582-5.405-0.132-6.064 6.064-11.073 13.578-11.073zM24.882 10.527c-1.582-3.823-6.064-6.327-11.205-6.327-3.032 0-5.932 0.923-8.305 2.768-2.109 1.582-3.427 3.955-3.427 6.591 0 1.714 0.527 3.296 1.582 4.614l0.264 0.395-1.582 4.614 5.273-1.714 0.395 0.132c0.264 0.132 0.527 0.264 0.923 0.395-0.264-0.791-0.395-1.582-0.395-2.373 0-5.405 5.273-9.755 11.864-9.755v0c1.582-0.132 3.032 0.132 4.614 0.659zM29.627 27.4l-1.186-3.691 0.264-0.395c0.791-1.055 1.318-2.505 1.318-3.823 0-4.35-4.482-7.778-9.887-7.778s-9.887 3.559-9.887 7.778c0 4.35 4.482 7.778 9.887 7.778v0c1.714 0 3.296-0.395 4.877-1.055l0.395-0.132 4.218 1.318z"></path>
</svg>
