<!-- Generated by IcoMoon.io -->
<svg version="1.1" xmlns="http://www.w3.org/2000/svg" width="32" height="32" viewBox="0 0 32 32">
<title>money</title>
<path d="M24.495 15.648h-17.402c-0.79 0-1.43-0.64-1.43-1.43s0.64-1.43 1.43-1.43h17.39c0.79 0 1.43 0.64 1.43 1.43s-0.64 1.43-1.43 1.43v0zM24.495 23.013h-17.402c-0.79 0-1.43-0.64-1.43-1.43s0.64-1.43 1.43-1.43h17.39c0.79 0 1.43 0.64 1.43 1.43s-0.64 1.43-1.43 1.43v0zM15.804 31.984c-0.789 0-1.429-0.64-1.429-1.429v0 0-16.732l-8.755-11.409c-0.186-0.239-0.297-0.543-0.297-0.873 0-0.789 0.64-1.429 1.429-1.429 0.459 0 0.868 0.217 1.129 0.553l0.002 0.003 9.349 12.192v17.699c0 0.789-0.64 1.429-1.429 1.429v0 0zM15.040 15.653v0c-0.001 0-0.001 0-0.002 0-0.789 0-1.429-0.64-1.429-1.429 0-0.341 0.119-0.653 0.318-0.899l-0.002 0.003 10.206-12.781c0.264-0.328 0.666-0.536 1.116-0.536 0.79 0 1.43 0.64 1.43 1.43 0 0.339-0.118 0.651-0.316 0.896l0.002-0.003-10.206 12.781c-0.264 0.328-0.665 0.537-1.114 0.538h-0z"></path>
</svg>
