<!-- Generated by IcoMoon.io -->
<svg version="1.1" xmlns="http://www.w3.org/2000/svg" width="32" height="32" viewBox="0 0 32 32">
<title>header_offer</title>
<path d="M29.001 4h-26c-1.657 0.001-2.999 1.344-3 3v18c0.002 1.657 1.344 2.999 3 3h25.999c1.657-0.002 2.999-1.344 3-3v-18c-0.002-1.656-1.343-2.998-2.999-3h-0zM29.001 6c0.138 0 0.27 0.029 0.39 0.080l-0.006-0.002-13.384 11.602-13.383-11.602c0.113-0.049 0.245-0.077 0.383-0.077h0zM29.001 26h-26c-0.553 0-1.001-0.448-1.001-1.001v0-16.808l13.345 11.566c0.175 0.152 0.405 0.245 0.657 0.245s0.482-0.093 0.658-0.246l-0.001 0.001 13.345-11.566v16.808c0 0.553-0.448 1.001-1.001 1.001-0 0-0.001 0-0.001 0h0z"></path>
</svg>
