<!-- Generated by IcoMoon.io -->
<svg version="1.1" xmlns="http://www.w3.org/2000/svg" width="25" height="32" viewBox="0 0 25 32">
<title>paper_right</title>
<path d="M1.99 32c-1.099-0.004-1.988-0.895-1.99-1.994v-28.015c0.003-1.098 0.892-1.988 1.99-1.992h16.072c0 0 0 0 0 0 0.291 0 0.552 0.129 0.729 0.333l0.001 0.001 0.005 0.006 0.010 0.010 6.033 5.945c0.163 0.173 0.264 0.408 0.264 0.665 0 0 0 0.001 0 0.001v-0 23.031c-0.003 1.101-0.89 1.995-1.989 2.007h-0.001zM1.95 30.047h21.206v-22.112h-4.116c-1.084-0.003-1.963-0.873-1.982-1.953l-0-0.002 0.023-4.027h-15.131zM19.006 5.991h2.751l-2.737-2.698zM4.67 22.522c-0.287-0.007-0.518-0.24-0.523-0.527v-0.944c0-0.001 0-0.002 0-0.002 0-0.29 0.231-0.525 0.518-0.534l0.001-0h10.236c0.29 0.008 0.522 0.245 0.523 0.536v0.934c-0.001 0.292-0.234 0.529-0.524 0.537l-0.001 0zM20.368 17.779c-0.018 0-0.036 0-0.053-0.002h-15.522c-0.015 0-0.034 0.002-0.051 0.002-0.317-0.002-0.577-0.243-0.608-0.551l-0-0.003v-0.905c0.032-0.311 0.291-0.552 0.608-0.555h0c0.018 0 0.036 0 0.053 0.002h15.521c0.015 0 0.034-0.002 0.051-0.002 0.316 0.001 0.576 0.242 0.608 0.55l0 0.003v0.906c-0.031 0.312-0.291 0.554-0.608 0.556h-0zM20.368 13.033c-0.018 0-0.036 0-0.053-0.002h-15.521c-0.015 0-0.034 0.002-0.051 0.002-0.317-0.001-0.577-0.242-0.608-0.551l-0-0.003v-0.905c0.032-0.311 0.291-0.552 0.608-0.555h0c0.017 0 0.035 0 0.053 0.002h15.522c0.015 0 0.034-0.002 0.051-0.002 0.317 0.001 0.576 0.242 0.608 0.551l0 0.003v0.906c-0.032 0.311-0.291 0.552-0.608 0.554h-0z"></path>
</svg>
