<!-- Generated by IcoMoon.io -->
<svg version="1.1" xmlns="http://www.w3.org/2000/svg" width="32" height="32" viewBox="0 0 32 32">
<title>review</title>
<path d="M7.726 30.217c-0.183 0-0.366-0.046-0.549-0.183-0.32-0.229-0.457-0.594-0.366-0.96l1.371-5.303h-4.8c-1.6 0-2.88-1.28-2.88-2.88v-15.954c0-1.6 1.28-2.88 2.88-2.88h25.371c1.6 0 2.88 1.28 2.88 2.88v15.909c0 1.6-1.28 2.88-2.88 2.88h-10.651l-9.874 6.309c-0.183 0.137-0.32 0.183-0.503 0.183zM3.383 3.931c-0.594 0-1.051 0.457-1.051 1.051v15.909c0 0.594 0.457 1.051 1.051 1.051h5.989c0.274 0 0.549 0.137 0.731 0.366s0.229 0.503 0.183 0.777l-1.097 4.206 8.183-5.211c0.137-0.091 0.32-0.137 0.503-0.137h10.926c0.594 0 1.051-0.457 1.051-1.051v-15.954c0-0.594-0.457-1.051-1.051-1.051h-25.417z"></path>
</svg>
