<!-- Generated by IcoMoon.io -->
<svg version="1.1" xmlns="http://www.w3.org/2000/svg" width="32" height="32" viewBox="0 0 32 32">
<title>header_search</title>
<path d="M13.14 26.151c-7.054 0-12.903-5.849-12.903-12.903s5.849-12.903 12.903-12.903 12.903 5.849 12.903 12.903-5.849 12.903-12.903 12.903zM13.14 2.925c-5.677 0-10.323 4.645-10.323 10.323s4.645 10.323 10.323 10.323 10.323-4.645 10.323-10.323-4.645-10.323-10.323-10.323zM30.344 31.656c-0.344 0-0.688-0.172-0.86-0.344l-8.602-8.602c-0.516-0.516-0.516-1.376 0-1.892s1.376-0.516 1.892 0l8.602 8.602c0.516 0.516 0.516 1.376 0 1.892-0.344 0.344-0.688 0.344-1.032 0.344z"></path>
</svg>
