<!-- Generated by IcoMoon.io -->
<svg version="1.1" xmlns="http://www.w3.org/2000/svg" width="32" height="32" viewBox="0 0 32 32">
<title>send</title>
<path d="M25.747 29.185c-0.001 0-0.002 0-0.003 0-0.185 0-0.361-0.036-0.522-0.102l0.009 0.003-23.92-9.65c-0.508-0.21-0.86-0.702-0.86-1.275 0-0.502 0.269-0.941 0.67-1.181l0.006-0.003 28.343-16.784c0.201-0.121 0.443-0.192 0.701-0.192 0.76 0 1.376 0.616 1.376 1.376 0 0.080-0.007 0.159-0.020 0.235l0.001-0.008-4.423 26.434c-0.113 0.656-0.677 1.148-1.357 1.148-0 0-0 0-0.001 0h0zM4.923 17.927l19.751 7.965 3.653-21.831zM21.841 12.92l-11.35 17.705-0.424-8.896zM21.841 11.544c0.76 0 1.375 0.616 1.375 1.376 0 0.276-0.081 0.533-0.221 0.748l0.003-0.005-11.35 17.705c-0.249 0.383-0.674 0.632-1.157 0.632-0.736 0-1.338-0.578-1.374-1.306l-0-0.003-0.424-8.896c-0.001-0.020-0.002-0.043-0.002-0.066 0-0.449 0.215-0.848 0.548-1.098l0.004-0.003 11.774-8.806c0.226-0.173 0.513-0.278 0.823-0.279h0zM11.66 26.252l4.924-7.679-5.107 3.821z"></path>
</svg>
