<!-- Generated by IcoMoon.io -->
<svg version="1.1" xmlns="http://www.w3.org/2000/svg" width="32" height="32" viewBox="0 0 32 32">
<g color="#EE4422">
<path d="M16.046 1.189c-0.183 0-0.457 0.229-0.686 0.731l-3.84 7.771c-0.274 0.549-0.914 1.051-1.554 1.143l-8.594 1.234c-0.549 0.091-0.869 0.274-0.914 0.457s0.091 0.503 0.503 0.914l6.217 6.034c0.457 0.457 0.686 1.189 0.594 1.829l-1.463 8.549c-0.091 0.549 0 0.914 0.137 1.006s0.503 0.091 1.006-0.183l7.634-4.069c0.274-0.137 0.96-0.183 0.96-0.183s0-25.006 0-25.234z"></path>
</g>
<g color="#ccc">
<path d="M16.046 26.423c0 0 0.686 0.046 0.96 0.183l7.634 4.069c0.503 0.274 0.869 0.274 1.006 0.183s0.229-0.457 0.137-1.006l-1.463-8.549c-0.091-0.64 0.137-1.371 0.594-1.829l6.217-6.034c0.411-0.411 0.549-0.731 0.503-0.914s-0.366-0.366-0.914-0.457l-8.594-1.234c-0.64-0.091-1.28-0.594-1.554-1.143l-3.84-7.771c-0.229-0.503-0.503-0.731-0.686-0.731 0 0.229 0 25.234 0 25.234z"></path>
</g>
</svg>
