<!-- Generated by IcoMoon.io -->
<svg version="1.1" xmlns="http://www.w3.org/2000/svg" width="32" height="32" viewBox="0 0 32 32">
<title>tag_right</title>
<path d="M17.17 3.769c0.004-0.021 0.007-0.042 0.010-0.063l-0.010 0.063zM25.566 9.767c0 0 0 0 0 0 1.822 0 3.299-1.477 3.299-3.299s-1.477-3.299-3.299-3.299c-1.822 0-3.299 1.477-3.299 3.299v0c0.002 1.821 1.477 3.296 3.298 3.299h0zM27.064 6.522c0 0 0 0 0 0 0 0.853-0.691 1.544-1.544 1.544s-1.544-0.691-1.544-1.544c0-0.853 0.691-1.544 1.544-1.544v0c0.853 0 1.544 0.691 1.544 1.544v0zM12.618 31.998c-0.002 0-0.003 0-0.005 0-0.743 0-1.417-0.299-1.907-0.783l0 0-9.911-9.909c-0.492-0.49-0.796-1.168-0.796-1.917s0.304-1.427 0.796-1.916l15.146-15.146c0.964-0.869 2.2-1.453 3.565-1.614l0.051-0.005 9.818-0.7c0.057-0.005 0.126-0.008 0.194-0.008 1.327 0.002 2.402 1.078 2.404 2.405v0c0 0.070-0.003 0.14-0.009 0.21l-0.012 0.135 0.002 0.006-0.687 9.668c-0.152 1.4-0.743 2.639-1.631 3.6l0.004-0.004-15.134 15.203c-0.433 0.438-1.016 0.725-1.667 0.777l-0.009 0.001h-0.004zM11.954 29.966c0.143 0.125 0.331 0.201 0.536 0.201 0 0 0 0 0 0h0.017c0.001 0 0.002 0 0.003 0 0.161 0 0.311-0.051 0.433-0.138l-0.002 0.002 0.094-0.084 15.179-15.183c0.535-0.62 0.903-1.398 1.025-2.256l0.003-0.023 0.002-0.015 0.006-0.052v-0.037l0.741-10.419-10.453 0.747c-0.891 0.148-1.677 0.517-2.324 1.048l0.009-0.007-0.039 0.036-15.142 15.143c-0.131 0.142-0.211 0.333-0.211 0.542s0.080 0.4 0.211 0.543l-0.001-0.001 0.018 0.018 9.878 9.923z"></path>
</svg>
