<!-- Generated by IcoMoon.io -->
<svg version="1.1" xmlns="http://www.w3.org/2000/svg" width="32" height="32" viewBox="0 0 32 32">
<title>tag_mid</title>
<path d="M7.863 4.206c-1.966 0-3.566 1.6-3.566 3.566s1.6 3.566 3.566 3.566 3.566-1.6 3.566-3.566c-0.046-1.966-1.6-3.566-3.566-3.566zM9.143 7.726c0 0.686-0.549 1.28-1.28 1.28-0.686 0-1.28-0.549-1.28-1.28 0-0.686 0.549-1.28 1.28-1.28 0.686 0.046 1.28 0.594 1.28 1.28zM17.006 2.606c-1.189-1.189-3.246-2.057-4.937-2.057h-7.817c-1.966 0.046-3.566 1.6-3.566 3.566v7.817c0 1.646 0.869 3.749 2.057 4.891l13.44 13.486c0.64 0.64 1.554 1.051 2.514 1.051 0.914 0 1.829-0.366 2.514-1.051l9.234-9.28c0.64-0.64 1.051-1.554 1.051-2.514 0-0.914-0.366-1.829-1.051-2.514l-13.44-13.394zM29.211 18.606c0 0.32-0.137 0.686-0.366 0.869l-9.234 9.234c-0.503 0.457-1.371 0.457-1.829 0l-13.44-13.44c-0.731-0.731-1.371-2.24-1.371-3.291v-7.863c0-0.686 0.594-1.28 1.28-1.28h7.817c1.051 0 2.56 0.64 3.337 1.371l13.44 13.44c0.229 0.274 0.366 0.594 0.366 0.96z"></path>
</svg>
