<!-- Generated by IcoMoon.io -->
<svg version="1.1" xmlns="http://www.w3.org/2000/svg" width="32" height="32" viewBox="0 0 32 32">
<title>user</title>
<path d="M15.875 2.673c4.217 0.088 7.601 3.528 7.601 7.757 0 0.047-0 0.094-0.001 0.14l0-0.007c0.001 0.039 0.001 0.085 0.001 0.131 0 4.23-3.384 7.669-7.593 7.757l-0.008 0c-4.218-0.087-7.604-3.526-7.604-7.757 0-0.046 0-0.092 0.001-0.138l-0 0.007c-0.001-0.040-0.001-0.086-0.001-0.133 0-4.231 3.386-7.671 7.596-7.757l0.008-0zM15.875 16.401c3.084-0.088 5.552-2.609 5.552-5.707 0-0.046-0.001-0.093-0.002-0.139l0 0.007c0.001-0.040 0.002-0.087 0.002-0.134 0-3.098-2.467-5.619-5.543-5.707l-0.008-0c-3.086 0.086-5.555 2.608-5.555 5.707 0 0.047 0.001 0.094 0.002 0.141l-0-0.007c-0.001 0.039-0.002 0.086-0.002 0.132 0 3.099 2.469 5.621 5.547 5.707l0.008 0zM27.089 29.321c-0 0-0.001 0-0.001 0-0.426 0-0.792-0.26-0.946-0.63l-0.003-0.007c-2.002-4.899-5.936-7.943-10.263-7.943-4.125 0-7.969 2.837-10.032 7.405-0.165 0.359-0.521 0.603-0.934 0.603-0.566 0-1.025-0.459-1.025-1.025 0-0.153 0.033-0.298 0.093-0.428l-0.003 0.006c2.392-5.313 6.959-8.611 11.901-8.611 2.772 0.022 5.313 0.998 7.313 2.616l-0.022-0.017c2.138 1.731 3.805 3.962 4.833 6.518l0.038 0.108c0.048 0.115 0.076 0.248 0.076 0.388 0 0.566-0.459 1.025-1.024 1.025h-0z"></path>
</svg>
