<!-- Generated by IcoMoon.io -->
<svg version="1.1" xmlns="http://www.w3.org/2000/svg" width="32" height="32" viewBox="0 0 32 32">
<title>icon_volt</title>
<path d="M10.615 32c-0.345 0-0.674-0.112-0.948-0.324-0.493-0.384-0.709-1.020-0.55-1.62l2.764-10.599h-4.448c-0.856-0.004-1.551-0.7-1.55-1.552 0-0.123 0.016-0.247 0.046-0.371l4.038-16.356c0.171-0.691 0.787-1.175 1.498-1.179h12c0.855 0 1.55 0.695 1.55 1.55 0 0.259-0.066 0.519-0.193 0.751l-4.777 8.604h4.51c0.851 0 1.551 0.69 1.559 1.536 0.004 0.347-0.112 0.689-0.324 0.962l-13.95 17.995c-0.295 0.382-0.743 0.602-1.227 0.602zM13.868 16.357c0.855 0 1.551 0.695 1.551 1.55 0 0.128-0.017 0.258-0.049 0.389l-1.366 5.231 7.389-9.523h-3.982c-0.855 0-1.55-0.695-1.55-1.55 0-0.259 0.067-0.518 0.194-0.75l4.776-8.603h-8.149l-3.27 13.256h4.456z"></path>
</svg>
